<svg height='100px' width='100px'  fill="#e13701" xmlns="http://www.w3.org/2000/svg" xmlns:xlink="http://www.w3.org/1999/xlink" xml:space="preserve" version="1.1" style="shape-rendering:geometricPrecision;text-rendering:geometricPrecision;image-rendering:optimizeQuality;" viewBox="0 0 1.588 1.588" x="0px" y="0px" fill-rule="evenodd" clip-rule="evenodd"><defs><style type="text/css">
   
    .fil0 {fill:none}
    .fil1 {fill:#e13701;fill-rule:nonzero}
   
  </style></defs><g><g><path class="fil0" d="M0 1.588c0,-0.529 0,-1.059 0,-1.588 0.529,0 1.059,0 1.588,0 0,0.529 0,1.059 0,1.588 -0.529,0 -1.059,0 -1.588,0z"></path><path class="fil1" d="M0.174 0l0.009 0 1.222 0 0.01 0c0.047,0 0.091,0.02 0.122,0.051 0.032,0.031 0.051,0.075 0.051,0.123l0 0.009 0 0.313 0 0.919c0,0.047 -0.019,0.091 -0.051,0.122 -0.031,0.032 -0.075,0.051 -0.122,0.051l-1.241 0c-0.048,0 -0.092,-0.019 -0.123,-0.051 -0.031,-0.031 -0.051,-0.075 -0.051,-0.122l0 -0.919 0 -0.313 0 -0.009c0,-0.048 0.02,-0.092 0.051,-0.123 0.031,-0.031 0.075,-0.051 0.123,-0.051zm0.645 0.707c0.007,-0.027 0.035,-0.042 0.061,-0.035 0.027,0.007 0.042,0.034 0.035,0.06l-0.146 0.547c-0.007,0.026 -0.034,0.042 -0.061,0.035 -0.026,-0.007 -0.042,-0.035 -0.035,-0.061l0.146 -0.546zm0.206 0.506c-0.023,0.015 -0.054,0.008 -0.068,-0.016 -0.015,-0.023 -0.008,-0.053 0.015,-0.068l0.175 -0.109 -0.175 -0.11c-0.023,-0.014 -0.03,-0.045 -0.015,-0.068 0.014,-0.023 0.045,-0.03 0.068,-0.016l0.242 0.151c0.006,0.004 0.012,0.01 0.016,0.017 0.014,0.023 0.007,0.053 -0.016,0.068l-0.242 0.151zm-0.409 -0.084c0.023,0.015 0.03,0.045 0.016,0.068 -0.015,0.024 -0.045,0.031 -0.068,0.016l-0.243 -0.151c-0.023,-0.015 -0.03,-0.045 -0.016,-0.068 0.005,-0.007 0.01,-0.013 0.017,-0.017l0.242 -0.151c0.023,-0.014 0.053,-0.007 0.068,0.016 0.014,0.023 0.007,0.054 -0.016,0.068l-0.175 0.11 0.175 0.109zm-0.12 -0.93l0 0c0.028,0 0.05,0.022 0.05,0.049l0 0c0,0.027 -0.022,0.05 -0.05,0.05l0 0c-0.027,0 -0.049,-0.023 -0.049,-0.05l0 0c0,-0.027 0.022,-0.049 0.049,-0.049zm0.149 0l0.596 0c0.027,0 0.049,0.022 0.049,0.049l0 0c0,0.027 -0.022,0.05 -0.049,0.05l-0.596 0c-0.027,0 -0.049,-0.023 -0.049,-0.05l0 0c0,-0.027 0.022,-0.049 0.049,-0.049zm-0.298 0l0 0c0.028,0 0.05,0.022 0.05,0.049l0 0c0,0.027 -0.022,0.05 -0.05,0.05l0 0c-0.027,0 -0.049,-0.023 -0.049,-0.05l0 0c0,-0.027 0.022,-0.049 0.049,-0.049zm1.142 0.297l-1.39 0 0 0.919c0,0.02 0.009,0.039 0.022,0.052 0.014,0.014 0.032,0.022 0.053,0.022l1.241 0c0.02,0 0.039,-0.008 0.052,-0.022 0.014,-0.013 0.022,-0.032 0.022,-0.052l0 -0.919zm-1.306 -0.397c-0.023,0 -0.044,0.01 -0.059,0.025l0 0c-0.015,0.015 -0.025,0.036 -0.025,0.059l0 0.214 1.39 0 0 -0.214c0,-0.023 -0.009,-0.044 -0.025,-0.059l0 0c-0.015,-0.015 -0.036,-0.025 -0.059,-0.025l-1.222 0z"></path></g></g></svg>