<svg height='100px' width='100px'  fill="#e13701" xmlns="http://www.w3.org/2000/svg" xmlns:xlink="http://www.w3.org/1999/xlink" version="1.1" x="0px" y="0px" viewBox="0 0 52 52" style="enable-background:new 0 0 52 52;" xml:space="preserve"><style type="text/css">
	.st0{fill:none;stroke:#e13701;stroke-width:2;stroke-linecap:round;stroke-linejoin:round;stroke-miterlimit:10;}
</style><g><g><path d="M31.9990234,49.9995117h-12c-1.6542969,0-3-1.3457031-3-3v-26c0-1.6542969,1.3457031-3,3-3h12    c1.6542969,0,3,1.3457031,3,3v26C34.9990234,48.6538086,33.6533203,49.9995117,31.9990234,49.9995117z M19.9990234,19.9995117    c-0.5512695,0-1,0.4487305-1,1v26c0,0.5512695,0.4487305,1,1,1h12c0.5605469,0,1-0.4394531,1-1v-26c0-0.5512695-0.4487305-1-1-1    H19.9990234z"></path></g><g><path d="M30,16.0004883h-8c-1.6542969,0-3-1.3457031-3-3v-8c0-1.6542969,1.3457031-3,3-3h8c1.6542969,0,3,1.3457031,3,3v8    C33,14.6547852,31.6542969,16.0004883,30,16.0004883z M22,4.0004883c-0.5512695,0-1,0.4487305-1,1v8c0,0.5512695,0.4487305,1,1,1    h8c0.5512695,0,1-0.4487305,1-1v-8c0-0.5512695-0.4487305-1-1-1H22z"></path></g><g><path d="M39.9990234,35.9995117c-0.5522461,0-1-0.4477539-1-1v-6c0-1.6542969-1.3457031-3-3-3h-2c-0.5522461,0-1-0.4477539-1-1    s0.4477539-1,1-1h2c2.7568359,0,5,2.2431641,5,5v6C40.9990234,35.5517578,40.5512695,35.9995117,39.9990234,35.9995117z"></path></g><g><path d="M11.9990234,35.9995117c-0.5522461,0-1-0.4477539-1-1v-6c0-2.7568359,2.2431641-5,5-5h2c0.5522461,0,1,0.4477539,1,1    s-0.4477539,1-1,1h-2c-1.6542969,0-3,1.3457031-3,3v6C12.9990234,35.5517578,12.5512695,35.9995117,11.9990234,35.9995117z"></path></g><g><path d="M43.9990234,35.9995117c-0.5522461,0-1-0.4477539-1-1v-6.3964844c0-3.6411133-2.9624023-6.6035156-6.6040039-6.6035156    h-2.3959961c-0.5522461,0-1-0.4477539-1-1s0.4477539-1,1-1h2.3959961c4.7441406,0,8.6040039,3.859375,8.6040039,8.6035156    v6.3964844C44.9990234,35.5517578,44.5512695,35.9995117,43.9990234,35.9995117z"></path></g><g><path d="M7.9990234,35.9995117c-0.5522461,0-1-0.4477539-1-1V28.472168c0-4.671875,3.8007813-8.4726563,8.472168-8.4726563    h2.527832c0.5522461,0,1,0.4477539,1,1s-0.4477539,1-1,1h-2.527832c-3.5688477,0-6.472168,2.9038086-6.472168,6.4726563v6.5273438    C8.9990234,35.5517578,8.5512695,35.9995117,7.9990234,35.9995117z"></path></g><g><path d="M14,40.0004883c-0.5522461,0-1-0.4477539-1-1c0-1.6542969-1.3457031-3-3-3s-3,1.3457031-3,3c0,0.5522461-0.4477539,1-1,1    s-1-0.4477539-1-1c0-2.7568359,2.2431641-5,5-5s5,2.2431641,5,5C15,39.5527344,14.5522461,40.0004883,14,40.0004883z"></path></g><g><path d="M46,40.0004883c-0.5522461,0-1-0.4477539-1-1c0-1.6542969-1.3457031-3-3-3s-3,1.3457031-3,3c0,0.5522461-0.4477539,1-1,1    s-1-0.4477539-1-1c0-2.7568359,2.2431641-5,5-5s5,2.2431641,5,5C47,39.5527344,46.5522461,40.0004883,46,40.0004883z"></path></g><g><path d="M24.0009766,8.003418c-0.1298828,0-0.2597656-0.0302734-0.3798828-0.0800781    c-0.1298828-0.050293-0.2402344-0.1201172-0.3300781-0.2202148c-0.0898438-0.0898438-0.1601563-0.199707-0.2099609-0.3198242    c-0.050293-0.1201172-0.0800781-0.25-0.0800781-0.3798828c0-0.2700195,0.1098633-0.5200195,0.2900391-0.7099609    c0.0898438-0.090332,0.2001953-0.1704102,0.3300781-0.2202148c0.2397461-0.1000977,0.5200195-0.1000977,0.7597656,0    c0.1201172,0.0498047,0.2299805,0.1298828,0.3300781,0.2202148c0.1801758,0.1899414,0.2900391,0.4399414,0.2900391,0.7099609    c0,0.2597656-0.1098633,0.5200195-0.2900391,0.699707C24.5209961,7.8930664,24.2612305,8.003418,24.0009766,8.003418z"></path></g><g><path d="M28.0009766,8.003418c-0.2597656,0-0.5200195-0.1103516-0.7099609-0.300293    c-0.1899414-0.1796875-0.2900391-0.4399414-0.2900391-0.699707c0-0.2700195,0.1000977-0.5200195,0.2900391-0.7099609    c0.3701172-0.3701172,1.0498047-0.3701172,1.4199219,0c0.1801758,0.1899414,0.2900391,0.4399414,0.2900391,0.7099609    c0,0.1298828-0.0297852,0.2597656-0.0800781,0.3798828c-0.0498047,0.1201172-0.1201172,0.2299805-0.2099609,0.3198242    C28.5209961,7.8930664,28.2612305,8.003418,28.0009766,8.003418z"></path></g><g><path d="M28,12.0004883h-4c-0.5522461,0-1-0.4477539-1-1s0.4477539-1,1-1h4c0.5522461,0,1,0.4477539,1,1    S28.5522461,12.0004883,28,12.0004883z"></path></g><g><path d="M30,38.0004883h-8.0024414c-0.5522461,0-1-0.4477539-1-1v-6.0019531c0-0.5522461,0.4477539-1,1-1H30    c0.5522461,0,1,0.4477539,1,1v6.0019531C31,37.5527344,30.5522461,38.0004883,30,38.0004883z M22.9975586,36.0004883H29    v-4.0019531h-6.0024414V36.0004883z"></path></g></g></svg>