<svg height='100px' width='100px'  fill="#e13701" xmlns:x="http://ns.adobe.com/Extensibility/1.0/" xmlns:i="http://ns.adobe.com/AdobeIllustrator/10.0/" xmlns:graph="http://ns.adobe.com/Graphs/1.0/" xmlns="http://www.w3.org/2000/svg" xmlns:xlink="http://www.w3.org/1999/xlink" version="1.1" x="0px" y="0px" viewBox="0 0 100 100" style="enable-background:new 0 0 100 100;" xml:space="preserve"><g><g i:extraneous="self"><g><path d="M5273.1,2400.1v-2c0-2.8-5-4-9.7-4s-9.7,1.3-9.7,4v2c0,1.8,0.7,3.6,2,4.9l5,4.9c0.3,0.3,0.4,0.6,0.4,1v6.4     c0,0.4,0.2,0.7,0.6,0.8l2.9,0.9c0.5,0.1,1-0.2,1-0.8v-7.2c0-0.4,0.2-0.7,0.4-1l5.1-5C5272.4,2403.7,5273.1,2401.9,5273.1,2400.1z      M5263.4,2400c-4.8,0-7.4-1.3-7.5-1.8v0c0.1-0.5,2.7-1.8,7.5-1.8c4.8,0,7.3,1.3,7.5,1.8C5270.7,2398.7,5268.2,2400,5263.4,2400z"></path><path d="M5268.4,2410.3c-0.6,0-1,0.4-1,1c0,0.6,0.4,1,1,1h4.3c0.6,0,1-0.4,1-1c0-0.6-0.4-1-1-1H5268.4z"></path><path d="M5272.7,2413.7h-4.3c-0.6,0-1,0.4-1,1c0,0.6,0.4,1,1,1h4.3c0.6,0,1-0.4,1-1C5273.7,2414.1,5273.3,2413.7,5272.7,2413.7z"></path><path d="M5272.7,2417h-4.3c-0.6,0-1,0.4-1,1c0,0.6,0.4,1,1,1h4.3c0.6,0,1-0.4,1-1C5273.7,2417.5,5273.3,2417,5272.7,2417z"></path></g><g><path d="M57.7,20.5c0-4.3-3.5-7.7-7.7-7.7s-7.7,3.5-7.7,7.7c0,3.5,2.3,6.3,5.4,7.3v44.2c-3.1,1-5.4,3.9-5.4,7.3     c0,4.3,3.5,7.7,7.7,7.7s7.7-3.5,7.7-7.7c0-3.5-2.3-6.3-5.4-7.3V27.9C55.5,26.9,57.7,24,57.7,20.5z M50,17.5     c1.7,0,3.1,1.4,3.1,3.1c0,1.7-1.4,3.1-3.1,3.1s-3.1-1.4-3.1-3.1C46.9,18.9,48.3,17.5,50,17.5z M50,82.5c-1.7,0-3.1-1.4-3.1-3.1     s1.4-3.1,3.1-3.1s3.1,1.4,3.1,3.1S51.7,82.5,50,82.5z"></path><path d="M28.8,27.9c3.1-1,5.4-3.9,5.4-7.3c0-4.3-3.5-7.7-7.7-7.7s-7.7,3.5-7.7,7.7c0,3.5,2.3,6.3,5.4,7.3V41h11.6v6.7H17.6     c-1-3.1-3.9-5.4-7.3-5.4c-4.3,0-7.7,3.5-7.7,7.7s3.5,7.7,7.7,7.7c3.5,0,6.3-2.3,7.3-5.4h18.1V59H24.1v13.1     c-3.1,1-5.4,3.9-5.4,7.3c0,4.3,3.5,7.7,7.7,7.7s7.7-3.5,7.7-7.7c0-3.5-2.3-6.3-5.4-7.3v-8.4h11.6V36.3H28.8V27.9z M10.2,53.1     c-1.7,0-3.1-1.4-3.1-3.1s1.4-3.1,3.1-3.1s3.1,1.4,3.1,3.1S11.9,53.1,10.2,53.1z M26.5,82.5c-1.7,0-3.1-1.4-3.1-3.1     s1.4-3.1,3.1-3.1s3.1,1.4,3.1,3.1S28.2,82.5,26.5,82.5z M26.5,17.5c1.7,0,3.1,1.4,3.1,3.1c0,1.7-1.4,3.1-3.1,3.1     s-3.1-1.4-3.1-3.1C23.4,18.9,24.8,17.5,26.5,17.5z"></path><path d="M89.8,42.3c-3.5,0-6.3,2.3-7.3,5.4H64.3V41h11.6V27.9c3.1-1,5.4-3.9,5.4-7.3c0-4.3-3.5-7.7-7.7-7.7s-7.7,3.5-7.7,7.7     c0,3.5,2.3,6.3,5.4,7.3v8.4H59.6v27.4h11.6v8.4c-3.1,1-5.4,3.9-5.4,7.3c0,4.3,3.5,7.7,7.7,7.7s7.7-3.5,7.7-7.7     c0-3.5-2.3-6.3-5.4-7.3V59H64.3v-6.7h18.1c1,3.1,3.9,5.4,7.3,5.4c4.3,0,7.7-3.5,7.7-7.7S94,42.3,89.8,42.3z M73.5,17.5     c1.7,0,3.1,1.4,3.1,3.1c0,1.7-1.4,3.1-3.1,3.1s-3.1-1.4-3.1-3.1C70.5,18.9,71.8,17.5,73.5,17.5z M73.5,82.5     c-1.7,0-3.1-1.4-3.1-3.1s1.4-3.1,3.1-3.1s3.1,1.4,3.1,3.1S75.2,82.5,73.5,82.5z M89.8,53.1c-1.7,0-3.1-1.4-3.1-3.1     s1.4-3.1,3.1-3.1s3.1,1.4,3.1,3.1S91.4,53.1,89.8,53.1z"></path></g></g></g></svg>