<svg height='100px' width='100px'  fill="#e13701" xmlns="http://www.w3.org/2000/svg" data-name="Layer 1" viewBox="0 0 128 128" x="0px" y="0px"><title>Miscellaneous 42</title><path d="M118,85a12,12,0,1,0-12,12A12,12,0,0,0,118,85ZM98,85a8,8,0,1,1,8,8A8,8,0,0,1,98,85Z"></path><path d="M54,35A12,12,0,1,0,42,23,12,12,0,0,0,54,35Zm0-20a8,8,0,1,1-8,8A8,8,0,0,1,54,15Z"></path><path d="M22.2,97.78A7,7,0,0,0,19,97c-3.57,0-7.17,2.64-8.95,7-2.32,5.65-.64,12,3.76,14.27A7,7,0,0,0,17,119c3.56,0,7.17-2.64,8.95-7C28.28,106.39,26.6,100,22.2,97.78Zm.06,12.75C21.18,113.16,19,115,17,115a3,3,0,0,1-1.4-.34c-2.49-1.26-3.36-5.55-1.87-9.18C14.83,102.85,17,101,19,101a3,3,0,0,1,1.4.34C22.88,102.61,23.75,106.9,22.26,110.52Z"></path><ellipse cx="42" cy="77" rx="2" ry="2" transform="translate(-37.87 40.76) rotate(-36.98)"></ellipse><path d="M119,39.42V29.35c5.41-2.87,9-7.78,9-13.35,0-8.82-9-16-20-16S88,7.18,88,16c0,5.57,3.58,10.48,9,13.35v1.71a18.13,18.13,0,0,0-11.67-1.7C78.4,30.94,74,36.07,71.61,40.1,68,46,65.25,48.31,58.23,46.28a66,66,0,0,1-7.58-3.17C41.81,39,30.8,34,23.67,37.33a9.41,9.41,0,0,0-3.42,2.72,13.51,13.51,0,0,0-4.59,1.07,3,3,0,0,0-1.73,2,3.16,3.16,0,0,0,.54,2.71l12.9,17.41L9.25,58.11a3.33,3.33,0,0,0-2.67.39,3.16,3.16,0,0,0-1.42,2.15C3.76,69,12.55,73.86,12.93,74.06l.18.08c6.6,2.78,19.25,8.1,19.87,8.38.35.15.69.33,1,.51l-3.17,4.89-.18.35a1.37,1.37,0,0,1-.52.49l-1.82.56a2,2,0,0,1-1-.13c-7.67-4-15-2.78-21.3,3.61C1.2,97.74-1,105.7.43,113.08c1.22,6.31,4.83,11.08,10.17,13.42a17.26,17.26,0,0,0,7,1.5,15.73,15.73,0,0,0,5.92-1.15c4.79-1.94,8.6-6.13,11-12.07L43.72,94l.25.59c4.79,11.45,8.4,18.85,10.72,22a18.52,18.52,0,0,0,13.19,7.39q.86.08,1.71.08a17.88,17.88,0,0,0,12.28-4.88c6.74-6.28,6.35-18.76,1.78-26S68.92,80.63,61.11,84.63a14.8,14.8,0,0,0-2.78,1.93c-3.26-6.89-8.49-17.43-11.06-20l-.34-.46a39.63,39.63,0,0,0,12.5-4.38c4.19-2.13,7.93-3.78,11.31-2.4.75.31,1.18.65,1.3,1,.41,1.31-1.55,4.29-3,6.48-2.21,3.38-4.29,6.56-3.24,9.47a5.53,5.53,0,0,0,3.92,3.26,11.92,11.92,0,0,0,3.48.47,23,23,0,0,0,5.24-.69,2,2,0,0,0-.94-3.89,13.67,13.67,0,0,1-6.61.28c-.74-.23-1.24-.52-1.33-.79-.37-1,1.55-4,2.82-5.92,2.17-3.32,4.41-6.75,3.44-9.85a5.74,5.74,0,0,0-3.6-3.54c-5.34-2.19-10.71.54-14.63,2.54-4.38,2.23-7.95,3.69-12.18,4.12a12.44,12.44,0,0,1-1.3.05L32.46,46.54a16.2,16.2,0,0,0-7-5.64C31,38.48,41.38,43.24,49,46.74a67.88,67.88,0,0,0,8.13,3.38,19.92,19.92,0,0,0,5.51.88c5.74,0,9.15-3.45,12.4-8.82,2-3.37,5.63-7.65,11.19-8.91,4-.91,8.05.74,10.78,2.29v3.87c-5.41,2.6-9,7-9,12.08,0,8,9,14.5,20,14.5s20-6.51,20-14.5C128,46.46,124.41,42,119,39.42Zm-88.2,73.8c-2,5-5.08,8.4-8.84,9.92a12.29,12.29,0,0,1-9.76-.3c-4.1-1.8-6.89-5.54-7.85-10.52-1.17-6,.66-12.75,4.54-16.71,5-5.14,10.46-6.08,16.59-2.87a5.7,5.7,0,0,0,4,.41l1.82-.56a5.16,5.16,0,0,0,3-2.63l3-4.66a24.35,24.35,0,0,1,4,4.39ZM55.27,89.44a3,3,0,0,0,4.7,1l.08-.07a15.39,15.39,0,0,1,2.89-2.18c5.77-3,13.77,1.33,17.34,7s4,16.25-1.12,21a13.91,13.91,0,0,1-10.9,3.75,14.52,14.52,0,0,1-10.35-5.79c-1.47-2-4.44-7.27-10.25-21.16l-.28-.67c-.16-.39-4.13-9.65-12.8-13.47-.79-.35-18.15-7.65-19.83-8.36C14.08,70.11,8.88,67,9,62.2L46.85,72.92C48.95,76.52,52,82.42,55.27,89.44Zm-26-40.51L43.17,67.72,33.65,65,18.37,44.38C21,43.58,25.25,43.59,29.25,48.93ZM115,42.66a19.76,19.76,0,0,1-14,0V38.93a23.33,23.33,0,0,0,14,0Zm-14,4.27a23.33,23.33,0,0,0,14,0V50.7a19.7,19.7,0,0,1-14,0ZM92,16c0-6.62,7.18-12,16-12s16,5.38,16,12-7.18,12-16,12S92,22.62,92,16Zm16,16a24.33,24.33,0,0,0,7-1v3.69a19.76,19.76,0,0,1-14,0V31A24.32,24.32,0,0,0,108,32Zm0,30c-8.82,0-16-4.71-16-10.5,0-3,1.92-5.7,5-7.61V52a2,2,0,0,0,1.13,1.8,23.26,23.26,0,0,0,19.73,0A2,2,0,0,0,119,52V43.89c3.07,1.91,5,4.62,5,7.61C124,57.29,116.82,62,108,62Z"></path><path d="M117,16c0-3.93-4-7-9-7s-9,3.07-9,7,4,7,9,7S117,19.93,117,16Zm-14,0c0-1.42,2.05-3,5-3s5,1.58,5,3-2.05,3-5,3S103,17.42,103,16Z"></path><path d="M70.29,116a6.89,6.89,0,0,0,4.4-1.58c3.85-3.13,4.42-9.89,1.28-15.09C73.9,95.91,70.73,94,67.71,94a6.89,6.89,0,0,0-4.4,1.58c-3.85,3.13-4.42,9.89-1.28,15.1C64.1,114.11,67.27,116,70.29,116ZM65.83,98.69A2.87,2.87,0,0,1,67.71,98c1.72,0,3.57,1.3,4.84,3.4,2.29,3.8,1.64,8.28-.38,9.92a2.88,2.88,0,0,1-1.88.68c-1.72,0-3.57-1.3-4.84-3.4C63.16,104.81,63.81,100.33,65.83,98.69Z"></path><circle cx="106" cy="85.01" r="2"></circle><circle cx="54" cy="23" r="2"></circle><circle cx="31" cy="14" r="2"></circle><circle cx="8.01" cy="33" r="2"></circle><circle cx="126" cy="100.01" r="2"></circle><path d="M1.78,14.25l4.5.51,2.16,4.17A2,2,0,0,0,10.21,20h.07a2,2,0,0,0,1.77-1.2l1.87-4.33,4.46-.84a2,2,0,0,0,1-3.42L16,7l.61-4.75a2,2,0,0,0-3-2L9.68,2.61,5.62.58A2,2,0,0,0,2.76,2.76l.94,4.69L.53,10.9a2,2,0,0,0,1.25,3.34ZM7.34,9.41a2,2,0,0,0,.49-1.75L7.49,6l1.38.69a2,2,0,0,0,1.92-.07l1.32-.78L11.88,7.5a2,2,0,0,0,.61,1.71l1.29,1.21-1.65.31a2,2,0,0,0-1.46,1.17l-.62,1.43L9.34,12A2,2,0,0,0,7.79,10.9l-1.65-.19Z"></path><path d="M115.49,110.29l.52-4a2,2,0,0,0-3-2l-3.3,2-3.43-1.71a2,2,0,0,0-2.86,2.18l.8,4-2.69,2.93a2,2,0,0,0,1.25,3.34l3.8.43,1.83,3.53a2,2,0,0,0,1.78,1.08h.07a2,2,0,0,0,1.77-1.2l1.58-3.66,3.77-.71a2,2,0,0,0,1-3.42Zm-3.68,3.12a2,2,0,0,0-1.46,1.17l-.33.77-.38-.73a2,2,0,0,0-1.55-1.07l-1-.11.71-.78a2,2,0,0,0,.49-1.75l-.19-1,.75.37a2,2,0,0,0,1.92-.07l.71-.42-.12,1a2,2,0,0,0,.61,1.71l.77.72Z"></path></svg>