<svg height='100px' width='100px'  fill="#e13701" xmlns:dc="http://purl.org/dc/elements/1.1/" xmlns:cc="http://creativecommons.org/ns#" xmlns:rdf="http://www.w3.org/1999/02/22-rdf-syntax-ns#" xmlns:svg="http://www.w3.org/2000/svg" xmlns="http://www.w3.org/2000/svg" xmlns:sodipodi="http://sodipodi.sourceforge.net/DTD/sodipodi-0.dtd" xmlns:inkscape="http://www.inkscape.org/namespaces/inkscape" viewBox="0 0 8.4666665 8.4666669" version="1.1" x="0px" y="0px"><g transform="translate(0,-288.53332)"><g style="" transform="matrix(0.26458333,0,0,0.26458333,59.87868,10.03158)" display="inline"><g transform="matrix(-1,0,0,1,-194.57892,10.240808)"><g transform="translate(84.261495,-16.89442)"><path d="m -63.511495,1064.2566 -9.760748,-0.01" style="" fill="none" stroke="#e13701" stroke-width="1px" stroke-linecap="butt" stroke-linejoin="miter" stroke-opacity="1"></path><path style="opacity:1;fill:none;fill-opacity:1;stroke:#e13701;stroke-width:1;stroke-linecap:butt;stroke-linejoin:round;stroke-miterlimit:4;stroke-dasharray:none;stroke-opacity:1" d="m -61.520357,1062.2637 c 0.79822,-1.5255 2.439624,-2.4917 4.238645,-2.4951 1.798921,0 3.446283,0.9565 4.253686,2.4789 l -3.995829,-8e-4 -0.998573,1.9977 0.999343,1.9981 3.995829,8e-4 c -0.806213,1.5218 -2.445611,2.5152 -4.244734,2.5101 -1.799024,0 -3.441293,-0.9726 -4.240806,-2.4988 h -13.727307 c -0.928383,1.8681 -3.020911,2.8511 -5.052631,2.3734 -2.031819,-0.4776 -3.46845,-2.2903 -3.468761,-4.3768 -4.11e-4,-2.0864 1.43566,-3.8979 3.4672,-4.3739 2.03164,-0.4761 4.124544,0.5086 5.053521,2.3775 6.148084,0 7.572334,0.01 13.720417,0.01 z"></path><path style="" d="m -78.018147,1062.0081 1.249354,2.2476 -1.248039,2.2468 -2.497394,-8e-4 -1.249354,-2.2475 1.248039,-2.2468 z" fill="none" stroke="#e13701" stroke-width="1px" stroke-linecap="round" stroke-linejoin="round" stroke-opacity="1"></path></g></g><g transform="translate(-199.07772,2.764882)"><g transform="matrix(0.91389243,0,0,0.90676172,-25.990578,129.90839)" style="" stroke-width="1.09851468"><g style="" transform="translate(112,97.4032)" display="inline" stroke-width="1.09851468"><g transform="translate(-112,-96)" style="" display="inline" stroke-width="1.09851468"><path d="m 19.685643,1037.959 c -0.101204,0.2393 -0.225029,0.4666 -0.368793,0.6794 -0.143765,0.2128 -0.307469,0.4111 -0.488433,0.592" style="opacity:1;fill:none;fill-opacity:1;stroke:#e13701;stroke-width:1.09851468;stroke-linecap:round;stroke-linejoin:miter;stroke-miterlimit:4;stroke-dasharray:none;stroke-dashoffset:0;stroke-opacity:1"></path><path d="m 17.556976,1040.0877 c -0.239276,0.1012 -0.490449,0.1798 -0.750839,0.233" style="opacity:1;fill:none;fill-opacity:1;stroke:#e13701;stroke-width:1.09851468;stroke-linecap:round;stroke-linejoin:miter;stroke-miterlimit:4;stroke-dasharray:none;stroke-dashoffset:0;stroke-opacity:1"></path><path d="m 15.193863,1040.3207 c -0.26039,-0.053 -0.511563,-0.1318 -0.750839,-0.233 -0.239276,-0.1012 -0.466654,-0.2251 -0.679455,-0.3688" style="opacity:1;fill:none;fill-opacity:1;stroke:#e13701;stroke-width:1.09851468;stroke-linecap:round;stroke-linejoin:miter;stroke-miterlimit:4;stroke-dasharray:none;stroke-dashoffset:0;stroke-opacity:1"></path><path d="m 12.68315,1038.6384 c -0.143764,-0.2128 -0.267589,-0.4401 -0.368793,-0.6794" style="opacity:1;fill:none;fill-opacity:1;stroke:#e13701;stroke-width:1.09851468;stroke-linecap:round;stroke-linejoin:miter;stroke-miterlimit:4;stroke-dasharray:none;stroke-dashoffset:0;stroke-opacity:1"></path><path transform="translate(0,1020.3622)" d="m 4.5,17 2.1289062,0.53125 c 0.1022756,0.623512 0.2665003,1.235265 0.4902344,1.826172 l -1.578125,1.527344 1,1.730468 2.1113282,-0.603515 c 0.3998158,0.488597 0.8473407,0.936121 1.3359374,1.335937 l -0.6035156,2.111328 1.7304684,1 1.53125,-1.582031 c 0.589156,0.222029 1.198926,0.384939 1.820313,0.486328 L 15,27.5 h 2 l 0.53125,-2.128906 c 0.624175,-0.102149 1.236588,-0.266376 1.828125,-0.490235 l 1.525391,1.578125 1.730468,-1 -0.603515,-2.111328 c 0.488597,-0.399816 0.936121,-0.84734 1.335937,-1.335937 l 2.111328,0.603515 1,-1.730468 -1.582031,-1.53125 c 0.222029,-0.589156 0.384939,-1.198926 0.486328,-1.820313 L 27.5,17" style="" fill="none" stroke="#e13701" stroke-width="1.09851468px" stroke-linecap="butt" stroke-linejoin="round" stroke-opacity="1"></path><path d="m 21.786471,1037.9486 a 6,6.0000048 0 0 1 -5.777353,4.4136 6,6.0000048 0 0 1 -5.790741,-4.396" style="opacity:1;fill:none;fill-opacity:1;stroke:#e13701;stroke-width:1.09851468;stroke-linecap:round;stroke-linejoin:miter;stroke-miterlimit:4;stroke-dasharray:none;stroke-dashoffset:0;stroke-opacity:1"></path></g></g></g></g><g transform="translate(-226.19602,34.742816)"><g style="" transform="rotate(90,7.25,1074.1122)" display="inline"><path d="m -34.124948,1050.6122 h 1.99993 l 1.8e-5,3.2499 c 4e-6,0.4144 -0.335805,0.7501 -0.749984,0.7501 h -0.499964 c -0.414251,0 -0.75005,-0.3358 -0.750052,-0.7501 z" style="" display="inline" fill="none" stroke="#e13701" stroke-width="1px" stroke-linecap="butt" stroke-linejoin="miter" stroke-opacity="1"></path><path d="m -33.125,1054.6122 v 10.25" style="" fill="none" stroke="#e13701" stroke-width="0.99999994px" stroke-linecap="butt" stroke-linejoin="miter" stroke-opacity="1"></path><path d="m -32,1067.1122 v 12.5 c 0,0.554 -0.446,1 -1,1 h -0.25 c -0.554,0 -1,-0.446 -1,-1 v -12.5" style="opacity:1;fill:none;fill-opacity:1;stroke:#e13701;stroke-width:1;stroke-linecap:round;stroke-linejoin:round;stroke-miterlimit:4;stroke-dasharray:none;stroke-dashoffset:0;stroke-opacity:1"></path><path d="m -32.0332,1079.7743 c 1.169135,-0.2771 2.0332,-1.2441 2.0332,-2.4121 v -10.5 m -6.25,0 v 10.5 c 0,1.168 0.864064,2.135 2.033203,2.4121" style="opacity:1;fill:none;fill-opacity:1;stroke:#e13701;stroke-width:0.99999994;stroke-linecap:butt;stroke-linejoin:round;stroke-miterlimit:4;stroke-dasharray:none;stroke-dashoffset:0;stroke-opacity:1"></path><path d="m -37,1064.8622 h 7.75 v 1.9999 H -37 Z" style="opacity:1;fill:none;fill-opacity:1;stroke:#e13701;stroke-width:1;stroke-linecap:round;stroke-linejoin:round;stroke-miterlimit:4;stroke-dasharray:none;stroke-dashoffset:0;stroke-opacity:1"></path></g></g></g></g></svg>